<svg id="Layer_1" data-name="Layer 1" xmlns="http://www.w3.org/2000/svg" viewBox="0 0 1313.28 374.4"><title>Instappy Logo_Black</title><path d="M524.05,209.4c.43.19.84.41,1.28.55a14.06,14.06,0,0,1,10.23,14q0,23.52,0,47c0,1,0,1.9,0,3.13.89,0,1.65.12,2.41.12,4.8,0,9.6,0,14.4,0a13.76,13.76,0,0,1,13.64,11c2.21,10.7-6.36,17.7-13.68,17.34-4.71-.23-9.44,0-14.16,0-.78,0-1.56.07-2.49.12,0,.91-.12,1.69-.12,2.47,0,21.84,0,43.67,0,65.51a43.66,43.66,0,0,0,.89,8.56c2,9.67,8.09,15.62,17.82,17.36a69.25,69.25,0,0,0,8.82.83,14,14,0,0,1,13.2,11.77c1,7.38-3,14-9.77,15.9a13.34,13.34,0,0,1-3.54.54,77.56,77.56,0,0,1-23-2.88c-16.11-4.79-26.1-15.47-30.36-31.63a75.38,75.38,0,0,1-2.38-19.23q0-33.11,0-66.23v-3.09c-2.23,0-4.21-.08-6.19,0-6.81.32-12.54-5.29-13.74-10.86a14.37,14.37,0,0,1,7.42-16,14.21,14.21,0,0,1,6.49-1.47h6v-3q0-23.16,0-46.31c0-8.13,3.22-12.6,10.92-15.18a2.38,2.38,0,0,0,.56-.4Z" transform="translate(-122.29 -209.4)"/><path d="M1435.57,292.92c-1.56,2.57-3.08,3.35-5.68,2.94a4.46,4.46,0,0,1-3.89-4.2c-.05-.72,0-1.44,0-2.16q0-26.75,0-53.5v-2.54l-.49-.15c-.46.78-.95,1.56-1.39,2.35L1392.94,291a19.19,19.19,0,0,0-1.28,2.31c-1.33,3.39-7.25,3.54-9.07,0s-4-7.11-6-10.67l-26.68-47.44a4.9,4.9,0,0,0-1.68-1.87q0,1.25,0,2.49,0,26.75,0,53.5c0,.64,0,1.28,0,1.92a4.4,4.4,0,0,1-3.09,4.38,4.69,4.69,0,0,1-6.58-3.63,11.92,11.92,0,0,1,0-2.15c0-24.71,0-49.42-.06-74.13,0-3,.75-5.12,3.5-6.38h2.88a8.9,8.9,0,0,1,3.86,4.08q18.51,33,37.09,66c.37.66.82,1.28,1.38,2.15.61-1,1.06-1.78,1.48-2.53q18.44-32.81,36.86-65.63a9.39,9.39,0,0,1,3.82-4.13h3.36l2.88,2.88Z" transform="translate(-122.29 -209.4)"/><path d="M1327.09,209.4l1.34,1a3.94,3.94,0,0,1,1.89,4.32,4.27,4.27,0,0,1-3.66,3.36,16.32,16.32,0,0,1-2.87.14h-22.55c-.71,0-1.41.08-2.44.13,0,1,0,2,0,2.88q0,34.06,0,68.13c0,.64,0,1.28,0,1.92a4.46,4.46,0,0,1-3,4.43,5.19,5.19,0,0,1-5.69-1.42,6.24,6.24,0,0,1-1-2.38,9.89,9.89,0,0,1,0-2.15q0-34.18,0-68.37c0-.94,0-1.89,0-3.06-1.06,0-1.91-.12-2.77-.12h-22.07a24.56,24.56,0,0,1-2.63-.08,4.65,4.65,0,0,1-4.05-3.23c-.47-1.83.25-3.41,2.11-4.67l1.17-.79Z" transform="translate(-122.29 -209.4)"/><path d="M122.29,244.44A23.84,23.84,0,0,0,123.5,242a16.68,16.68,0,1,1-.23,10.38,17.91,17.91,0,0,0-1-2.13Z" transform="translate(-122.29 -209.4)"/><path d="M932.05,583.8c-.59-.2-1.18-.43-1.77-.61a17.69,17.69,0,0,1-10.43-7.94,6,6,0,0,1-.77-1.73,3,3,0,0,1,1.52-3.46,3,3,0,0,1,3.68.77c.74.83,1.35,1.79,2.08,2.63a11.57,11.57,0,0,0,14.77,2.45,8.28,8.28,0,0,0,3.89-9.54c-.5.27-1,.51-1.43.77a16.65,16.65,0,0,1-22.76-5.3,15.79,15.79,0,0,1-.89-16.43c2.82-5.59,7.45-8.87,13.86-9.22A16.55,16.55,0,0,1,951.64,553c0,5,0,10.07,0,15.1,0,7-3.58,12.13-10.26,14.59l-3.1,1.12Zm2.67-20.6a10.38,10.38,0,1,0-10.27-10.48A10.46,10.46,0,0,0,934.73,563.2Z" transform="translate(-122.29 -209.4)"/><path d="M790.37,403.28c0,1.32,0,2.17,0,3q0,35.75,0,71.51a21.79,21.79,0,0,1-.36,4.29,10.79,10.79,0,0,1-21.23-1,30.77,30.77,0,0,1-.15-3.35q0-63.23,0-126.46c0-13.78,2.62-26.91,9.83-38.79,11.09-18.27,26.55-31.16,47.66-36,46.45-10.65,79.5,18.7,89.86,48.53a76.68,76.68,0,0,1-40.71,94.34,74.77,74.77,0,0,1-32,6.34,72.5,72.5,0,0,1-38.89-11.17,77.92,77.92,0,0,1-11.88-9.3C791.94,404.63,791.35,404.14,790.37,403.28Zm107.94-53.34c.44-29-23.88-54.05-54-54.05-31,0-54,26.21-54.13,53.78-.16,29.11,24.45,54.48,54.22,54.43C873.14,404,898.77,380,898.31,349.94Z" transform="translate(-122.29 -209.4)"/><path d="M963.21,403.27v3.22q0,36,0,72a16.77,16.77,0,0,1-.41,4,10.79,10.79,0,0,1-21.2-2.41c0-.48,0-1,0-1.44q0-64.79,0-129.58a74.91,74.91,0,0,1,81.18-74.55c28.93,2.29,49.4,17.31,62.7,42.49,6.59,12.47,8.36,26.11,7,40.09-2.6,27.5-17.1,47.13-40.75,60.36-11,6.15-23.08,8.3-35.61,8.16-15.12-.17-29.05-4.19-41.47-12.93-3.32-2.34-6.33-5.13-9.48-7.71C964.66,404.55,964.15,404.09,963.21,403.27Zm54-107.33c-30.54-.27-54,25.53-54.15,53.7-.16,29.71,24.83,54.38,54,54.45,28.85.07,54.15-23.91,54.27-53.89C1071.41,320.81,1047.15,295.69,1017.22,295.94Z" transform="translate(-122.29 -209.4)"/><path d="M405.6,425.64c-23.18,0-42.1-9.35-57.41-26.44a14.58,14.58,0,0,1-1.26-17,13.79,13.79,0,0,1,15.52-5.74,13.26,13.26,0,0,1,4.16,2.27c2.19,1.74,4.24,3.66,6.26,5.6,10,9.57,22,13.64,35.66,13a44.83,44.83,0,0,0,16.06-3.57,37.7,37.7,0,0,0,11.79-8.11,7.8,7.8,0,0,0,2.37-5.35c.12-3.05-1-4.83-3.89-5.87-3.23-1.16-6.52-2.18-9.78-3.25-17.3-5.71-34.62-11.36-51.88-17.19a80.32,80.32,0,0,1-11.61-5.1c-17.18-9-22.93-32.1-11.7-48.69a49.92,49.92,0,0,1,19.76-17.06c23.16-11.31,46.55-12.22,70-.75,9.24,4.53,17,11.12,23.78,18.77,4,4.48,4.28,11.91.83,17a13.88,13.88,0,0,1-15.9,5.27,12.86,12.86,0,0,1-3.69-2.17c-2.1-1.73-4.09-3.58-6-5.47-10.45-10.06-23-14.05-37.3-13-6.38.49-12.53,1.9-18,5.23A74.28,74.28,0,0,0,375,314.2c-1.86,1.51-2.43,3.72-2.49,6-.07,2.7,1.18,4.45,3.9,5.37,6.21,2.1,12.44,4.13,18.66,6.18,14.35,4.72,28.72,9.36,43,14.2a98.17,98.17,0,0,1,11,4.76c11.87,5.71,19.35,19.71,18,33.15a34.54,34.54,0,0,1-7,17.84c-6.85,9-15.94,14.9-26.39,18.85A78.63,78.63,0,0,1,405.6,425.64Z" transform="translate(-122.29 -209.4)"/><path d="M210.78,287.85c.64-.4,1.18-.71,1.69-1.06,10.28-7.34,21.77-11.1,34.33-12.26,31-2.84,62.29,16.85,73,48.07A68.77,68.77,0,0,1,323.41,345q0,32.88,0,65.75c0,6.82-3.57,12.28-9.42,14.14a14.21,14.21,0,0,1-18.92-13.63c.12-22,0-44,0-66a42.43,42.43,0,0,0-44-42.65c-20.13.67-37.59,16.62-40.11,36.67a50.46,50.46,0,0,0-.39,6.21q0,32.76,0,65.51a14,14,0,0,1-4.75,11.09,13.55,13.55,0,0,1-14.78,2.48c-5.27-2.09-8.15-6.25-8.73-11.92a25.78,25.78,0,0,1-.06-2.64q0-60.11,0-120.23a22.7,22.7,0,0,1,.16-3.35,14.16,14.16,0,0,1,27.89-.85C210.49,286.28,210.61,287,210.78,287.85Z" transform="translate(-122.29 -209.4)"/><path d="M725.27,403.34c-1,.85-1.62,1.39-2.24,2a74.66,74.66,0,0,1-36.31,18.92c-39,8.07-78.69-16-88.43-54.37-12.15-47.92,18.75-82.53,49.66-91.95,46.15-14.06,83.31,13.61,95.12,47.08a72.42,72.42,0,0,1,4,24c.07,21.67,0,43.34,0,65a11.12,11.12,0,0,1-3.77,9,10.29,10.29,0,0,1-11,1.93,9.87,9.87,0,0,1-6.8-8.79c-.26-3.34-.12-6.71-.16-10.07C725.4,405.29,725.33,404.53,725.27,403.34Zm.14-53.44c.48-28.9-23.87-54-54-54-29.95,0-54.07,25-54.08,54.06,0,30.06,25.35,54.22,54.25,54.15S726,379.86,725.41,349.9Z" transform="translate(-122.29 -209.4)"/><path d="M1171.05,386.21c.67-1.57,1.1-2.58,1.53-3.61q20.86-50,41.73-100a18.4,18.4,0,0,1,1.86-3.61A10.82,10.82,0,0,1,1235,289.45c-2.41,5.84-4.87,11.65-7.3,17.48q-36.63,87.87-73.29,175.72a15.2,15.2,0,0,1-2.58,4.27,10.62,10.62,0,0,1-13.74,1.9,10.79,10.79,0,0,1-4.25-13.26c1.88-4.67,3.89-9.29,5.83-13.94q9.37-22.46,18.76-44.92a4.79,4.79,0,0,0,0-4.08q-25.32-60.63-50.57-121.29a15.34,15.34,0,0,1-1.64-6.68,10.92,10.92,0,0,1,7.27-9.79,10.78,10.78,0,0,1,11.92,3.37,16.53,16.53,0,0,1,2.09,3.75q21.17,50.67,42.29,101.36C1170.1,384.14,1170.47,384.92,1171.05,386.21Z" transform="translate(-122.29 -209.4)"/><path d="M125.17,349.8q0-30.22,0-60.44a15.16,15.16,0,0,1,2.16-8.46A14.13,14.13,0,0,1,143,274.77a14.5,14.5,0,0,1,10.48,12.93c.05.8,0,1.6,0,2.4q0,60,0,119.92c0,4.07-.9,7.74-3.66,10.85a14.05,14.05,0,0,1-24.65-8.7c0-.88,0-1.76,0-2.64Q125.17,379.66,125.17,349.8Z" transform="translate(-122.29 -209.4)"/><path d="M591.49,539.5c1.05-.62,1.58-1,2.13-1.23,6.24-3.2,12.39-3.09,18.1,1.06,5.88,4.28,8,10.27,6.42,17.34a15.61,15.61,0,0,1-12.8,12.48,16.5,16.5,0,0,1-20.14-15.84c-.13-9.28,0-18.55,0-27.83,0-2,.83-3.17,2.25-3.55a3.11,3.11,0,0,1,4,3.17c.1,3.76,0,7.52,0,11.28C591.49,537.25,591.49,538.12,591.49,539.5Zm10.27,23.7a10.38,10.38,0,1,0-10.26-10.46A10.43,10.43,0,0,0,601.76,563.2Z" transform="translate(-122.29 -209.4)"/><path d="M536.05,539.52c0-4.49,0-8.56,0-12.62a16.76,16.76,0,0,1,.07-2.39,3.12,3.12,0,0,1,6.18.13,10.64,10.64,0,0,1,0,1.2c0,9,0,18.06,0,27.1a16.5,16.5,0,0,1-13,16.23,16.73,16.73,0,0,1-7.36-32.64A16.44,16.44,0,0,1,534,538.29Zm0,13.28a10.39,10.39,0,1,0-10.32,10.4A10.38,10.38,0,0,0,536,552.8Z" transform="translate(-122.29 -209.4)"/><path d="M1187.36,556.07a9.59,9.59,0,0,0,8.47,7.09,10,10,0,0,0,7.24-1.9c.19-.15.38-.3.58-.43,1.67-1.06,3.53-.86,4.52.46a3.32,3.32,0,0,1-.85,4.66,15.44,15.44,0,0,1-7.34,3.34,16.72,16.72,0,1,1-4.66-33.08c9.17-.66,16.73,5.12,18.13,13.85.77,4.81-.15,5.9-5,5.9h-19C1188.77,556,1188.08,556,1187.36,556.07Zm19.26-6.45c-1.07-4.43-5.37-7.37-10.22-7.17-4.4.18-8.4,3.32-9,7.17Z" transform="translate(-122.29 -209.4)"/><path d="M644.62,556a10.22,10.22,0,0,0,14.87,5.83c.48-.28.92-.64,1.38-1,1.78-1.18,3.66-1,4.69.43s.69,3.28-1,4.64a15.58,15.58,0,0,1-6.65,3.17,16.74,16.74,0,0,1-7.57-32.62c10-2.39,20.14,5,20.57,15,.14,3.31-.82,4.36-4.12,4.37-6.8,0-13.6,0-20.39,0C645.9,556,645.34,556,644.62,556Zm19.45-6.39a10.1,10.1,0,0,0-11.19-7.14c-4.09.5-7.88,3.82-8.07,7.14Z" transform="translate(-122.29 -209.4)"/><path d="M573.9,566.16a16.73,16.73,0,1,1-11.22-30c9.89-.68,17.44,7.29,17.7,15.17.17,5,.16,9.91.12,14.86a3,3,0,0,1-2.6,3.25c-1.65.25-2.73-.41-3.54-2.16C574.24,567,574.13,566.71,573.9,566.16Zm-10.26-3a10.38,10.38,0,1,0-10.31-10.44A10.42,10.42,0,0,0,563.65,563.2Z" transform="translate(-122.29 -209.4)"/><path d="M259.84,566.12a17.65,17.65,0,0,1-10.34,3.37,16.65,16.65,0,0,1-16.64-16.6,16.73,16.73,0,0,1,32.58-5.45,13.85,13.85,0,0,1,.79,4c.1,5,.08,9.9,0,14.86a3,3,0,0,1-2.38,3.15,3.12,3.12,0,0,1-3.67-2A9.78,9.78,0,0,1,259.84,566.12Zm-10.27-2.93a10.38,10.38,0,1,0-10.37-10.35A10.45,10.45,0,0,0,249.56,563.2Z" transform="translate(-122.29 -209.4)"/><path d="M385.14,566.09a17.63,17.63,0,0,1-11,3.41,16.71,16.71,0,0,1-16-17,16.73,16.73,0,0,1,30.38-9.39,14.7,14.7,0,0,1,3,8.45c.1,4.87.08,9.75,0,14.62a3.07,3.07,0,0,1-4,3.2C386.07,569,385.47,567.8,385.14,566.09Zm-10.3-23.64a10.38,10.38,0,1,0,10.47,10.28A10.37,10.37,0,0,0,374.84,542.44Z" transform="translate(-122.29 -209.4)"/><path d="M458.83,569.48a16.67,16.67,0,1,1,16.78-16.37A16.51,16.51,0,0,1,458.83,569.48Zm.05-27a10.38,10.38,0,1,0,10.45,10.27A10.31,10.31,0,0,0,458.88,542.44Z" transform="translate(-122.29 -209.4)"/><path d="M719.2,536.15a15.94,15.94,0,0,1,12.26,5.57c1.8,2,1.07,4.81-1.36,5.24a4.76,4.76,0,0,1-2.65-.63,11.15,11.15,0,0,1-1.8-1.56,10.33,10.33,0,0,0-10.38-1.68,8.15,8.15,0,0,0-2.8,1.77c-1.19,1.1-1,2.15.59,2.7,2.63.94,5.31,1.73,8,2.65a65.55,65.55,0,0,1,7.62,2.83,7.3,7.3,0,0,1,2.62,10.86,11.74,11.74,0,0,1-3.48,3.21,16.25,16.25,0,0,1-16.25.59,21.47,21.47,0,0,1-4.91-3.76,3,3,0,0,1-.16-4.5c1.24-1.28,2.84-1.24,4.48.12.55.46,1,1,1.62,1.43a10.34,10.34,0,0,0,10.4,1.5,7.66,7.66,0,0,0,2.42-1.51c1.38-1.23,1.14-2.37-.63-3-3-1-6.08-2-9.1-3a47,47,0,0,1-6.25-2.38,7.31,7.31,0,0,1-2.59-10.87,12.54,12.54,0,0,1,3.08-3A15.8,15.8,0,0,1,719.2,536.15Z" transform="translate(-122.29 -209.4)"/><path d="M193.2,569.48a15.87,15.87,0,0,1-12.5-5.25,5.41,5.41,0,0,1-1.25-2.47,2.6,2.6,0,0,1,1.43-2.8A2.73,2.73,0,0,1,184,559c.71.51,1.32,1.16,2,1.72a10.36,10.36,0,0,0,10.12,2,7.52,7.52,0,0,0,2.14-1c.84-.57,1.88-1.14,1.72-2.38s-1.33-1.23-2.2-1.52c-3.78-1.27-7.58-2.49-11.37-3.77a20.94,20.94,0,0,1-3.1-1.27,7.47,7.47,0,0,1-2.46-11.44,13.48,13.48,0,0,1,8.81-4.87,16.32,16.32,0,0,1,14.94,4.65,7.37,7.37,0,0,1,1.21,1.47,3,3,0,0,1-.54,3.74,2.92,2.92,0,0,1-3.74.35,25.76,25.76,0,0,1-2-1.73A10.29,10.29,0,0,0,189,543.1a8.23,8.23,0,0,0-2.94,2c-.92.91-.61,1.91.62,2.42s2.26.8,3.39,1.18c3.11,1,6.23,2,9.33,3.06a20.27,20.27,0,0,1,2.66,1.08,7.53,7.53,0,0,1,2.37,11.94c-2.54,2.94-5.93,4.23-9.69,4.68C194.13,569.48,193.48,569.47,193.2,569.48Z" transform="translate(-122.29 -209.4)"/><path d="M838.9,538.87a16.15,16.15,0,0,1,10.37-2.67,15.53,15.53,0,0,1,14.19,14.67c.12,5,.05,10.07,0,15.11,0,2.27-1.12,3.47-3,3.49s-3.16-1.2-3.19-3.4c-.06-4.64,0-9.27,0-13.91a11.14,11.14,0,0,0-.38-3.07,9.27,9.27,0,0,0-10.15-6.58,9.16,9.16,0,0,0-7.93,8.87c-.13,4.39,0,8.79,0,13.19a13.59,13.59,0,0,1-.14,2.39,2.87,2.87,0,0,1-3,2.52,3,3,0,0,1-3.06-2.49,9.46,9.46,0,0,1-.11-1.91q0-12.23,0-24.47a13.49,13.49,0,0,1,0-1.44,3.13,3.13,0,0,1,5.75-1.6A13.4,13.4,0,0,1,838.9,538.87Z" transform="translate(-122.29 -209.4)"/><path d="M785.45,566.78a15.66,15.66,0,0,1-24.29-10.38,80.37,80.37,0,0,1-.31-8.62c0-2.72-.07-5.44,0-8.16.07-2.16,1.16-3.33,2.93-3.45a3,3,0,0,1,3.33,3c.1,1.27,0,2.56,0,3.84,0,3.6,0,7.2,0,10.8a9,9,0,0,0,5,8.4,9.21,9.21,0,0,0,13.47-7.71c.16-4.55,0-9.12.05-13.68a10.85,10.85,0,0,1,.11-2.15,3,3,0,0,1,3.33-2.47,2.91,2.91,0,0,1,2.8,2.76,15.55,15.55,0,0,1,.06,1.92q0,12,0,24c0,.64,0,1.28-.06,1.92a2.76,2.76,0,0,1-2.15,2.58,3,3,0,0,1-3.42-1.09C786.08,567.82,785.81,567.35,785.45,566.78Z" transform="translate(-122.29 -209.4)"/><path d="M889,538.83a15.66,15.66,0,0,1,24.45,11.92c.24,5.11.11,10.23.06,15.35,0,2.13-1.16,3.3-3,3.37a3,3,0,0,1-3.31-3.29c-.1-4.55,0-9.11-.06-13.67a13.21,13.21,0,0,0-.31-3.32,9.34,9.34,0,0,0-10.33-6.66,9.17,9.17,0,0,0-7.79,9c-.06,4.48,0,9,0,13.43a8.62,8.62,0,0,1-.33,2.59,2.84,2.84,0,0,1-3.2,1.94,2.89,2.89,0,0,1-2.7-2.59,11.71,11.71,0,0,1-.06-1.68q0-12.35,0-24.7c0-.24,0-.48,0-.72.07-2,.78-3.13,2.25-3.5s2.6.12,3.75,1.82C888.6,538.28,888.75,538.46,889,538.83Z" transform="translate(-122.29 -209.4)"/><path d="M150.06,538.87a16.08,16.08,0,0,1,10.62-2.66c7.41.62,13.8,7.25,13.94,14.67.1,5,0,10.08,0,15.11,0,2.27-1.13,3.47-3.07,3.47s-3.12-1.21-3.14-3.43c0-4.72,0-9.44,0-14.15a9.28,9.28,0,0,0-18.28-2.38,15.43,15.43,0,0,0-.32,3.33c0,4.4,0,8.8,0,13.19,0,2.06-1,3.21-2.64,3.42a3,3,0,0,1-3.53-2.49,10.72,10.72,0,0,1-.11-2.15q0-12,0-24a14,14,0,0,1,0-1.68,3.14,3.14,0,0,1,5.77-1.56A13.9,13.9,0,0,1,150.06,538.87Z" transform="translate(-122.29 -209.4)"/><path d="M1082.11,566.95a15.77,15.77,0,0,1-9.63,2.54c-7.73-.31-14.48-7-14.67-14.69-.12-5,0-10.07,0-15.1,0-2.26,1.11-3.49,3-3.53s3.19,1.25,3.2,3.6c0,4.39,0,8.79,0,13.18a13.83,13.83,0,0,0,.33,3.32,9.2,9.2,0,0,0,10.14,6.88,9.31,9.31,0,0,0,8.11-9.24c.09-4.31,0-8.63,0-12.94a16.26,16.26,0,0,1,.07-2.15,2.89,2.89,0,0,1,2.66-2.63,3,3,0,0,1,3.35,2.1,4.55,4.55,0,0,1,.21,1.41c0,8.79,0,17.58,0,26.36,0,2.6-2.19,4.18-4.34,3.19C1083.7,568.85,1083.09,567.9,1082.11,566.95Z" transform="translate(-122.29 -209.4)"/><path d="M1006.93,538.84a16.15,16.15,0,0,1,10.56-2.63c7.25.61,13.62,6.93,13.92,14.17.22,5.27.1,10.55.06,15.83,0,2.08-1.19,3.24-3,3.26s-3.17-1.2-3.2-3.39c-.06-4.64,0-9.28,0-13.91a11.59,11.59,0,0,0-.61-3.75,9.22,9.22,0,0,0-9.68-5.93,9.11,9.11,0,0,0-8.05,7.7,33.17,33.17,0,0,0-.24,4.78c0,3.68,0,7.36,0,11a3.25,3.25,0,0,1-1.27,2.94,3.09,3.09,0,0,1-4.8-1.72,8.39,8.39,0,0,1-.16-2.14q0-12.23,0-24.47c0-.48,0-1,0-1.44a3.07,3.07,0,0,1,2.17-2.87,3.1,3.1,0,0,1,3.57,1.26C1006.4,537.92,1006.61,538.32,1006.93,538.84Z" transform="translate(-122.29 -209.4)"/><path d="M803.31,538.78a15.74,15.74,0,0,1,24.49,13c0,4.56,0,9.12,0,13.67a8.25,8.25,0,0,1-.05,1.44,3,3,0,0,1-3.22,2.61,2.89,2.89,0,0,1-2.94-2.85c-.05-.56,0-1.12,0-1.68,0-4.08.06-8.16,0-12.23a13.62,13.62,0,0,0-.68-4.22,9.24,9.24,0,0,0-10.34-5.92,9.34,9.34,0,0,0-7.56,9c-.08,4.48,0,9,0,13.43a11.72,11.72,0,0,1-.06,1.92,3,3,0,0,1-3.24,2.57,3,3,0,0,1-2.92-2.64,11.71,11.71,0,0,1-.05-1.68q0-12.36,0-24.71c0-2.5.6-3.64,2.09-4.13,1.65-.54,2.82.07,4.23,2.2A2.11,2.11,0,0,0,803.31,538.78Z" transform="translate(-122.29 -209.4)"/><path d="M277.65,538.8a15.32,15.32,0,0,1,12.47-2.24,15.49,15.49,0,0,1,12,14.67c.21,4.87.06,9.75.06,14.63a3.38,3.38,0,0,1-1.87,3.36,3,3,0,0,1-4.39-2.81c-.11-3.35,0-6.72,0-10.07,0-1.76.09-3.53-.09-5.27a9.27,9.27,0,0,0-18.21-1.7,12.75,12.75,0,0,0-.3,3.09c0,4.48,0,9,0,13.43,0,2.27-1.12,3.51-3,3.57a2.94,2.94,0,0,1-3.19-2.6A13,13,0,0,1,271,565q0-12.11,0-24.23c0-.4,0-.8,0-1.2.1-1.8.87-2.9,2.27-3.26s2.59.11,3.64,1.6c.09.13.15.29.24.42S277.38,538.51,277.65,538.8Z" transform="translate(-122.29 -209.4)"/><path d="M422.44,544.28C419,543.77,418,543,418,540.93s1-2.86,4.28-3.35c.14-1.45.27-2.95.44-4.44a12.45,12.45,0,0,1,14.55-11.26,3.12,3.12,0,0,1,0,6.2c-1.1.17-2.23.18-3.32.43a6.14,6.14,0,0,0-5,5.45c-.19,1.15-.21,2.33-.33,3.81,2.1,0,3.92-.05,5.73,0,2,.08,3.17,1.09,3.36,2.75a3,3,0,0,1-3,3.48c-1.9.08-3.8,0-6,0v2.79q0,9,0,18a14.52,14.52,0,0,1-.07,2.15,2.82,2.82,0,0,1-2.55,2.47,2.85,2.85,0,0,1-3.27-1.84,8.26,8.26,0,0,1-.34-2.59c0-6,0-12,0-18Z" transform="translate(-122.29 -209.4)"/><path d="M398.69,544.25c-3.43-.44-4.52-1.27-4.56-3.25s1-2.86,4.46-3.48c.06-1.15.08-2.34.18-3.52.79-9.85,7.68-12.28,14.49-12.11a2.89,2.89,0,0,1,2.91,2.91,3,3,0,0,1-2.78,3.29c-.87.12-1.76.08-2.62.25a6.55,6.55,0,0,0-5.75,6.39c-.08.87,0,1.75,0,3l3.5.06c.8,0,1.6,0,2.39,0a3.22,3.22,0,0,1,3.1,3.31,3.07,3.07,0,0,1-3.19,2.91c-1.83.06-3.65,0-5.75,0-.05,1-.13,1.83-.13,2.67,0,6.07,0,12.14,0,18.22a10.07,10.07,0,0,1-.12,2.14,3,3,0,0,1-3.36,2.4,2.9,2.9,0,0,1-2.72-2.83c-.06-.63,0-1.28,0-1.92q0-9,0-18Z" transform="translate(-122.29 -209.4)"/><path d="M1161.53,558.69l8.13-17.74c.47-1,.9-2.06,1.43-3a3.09,3.09,0,0,1,4-1.54,3.14,3.14,0,0,1,1.74,3.79,9.28,9.28,0,0,1-.63,1.55l-11.49,25.06c-.07.15-.15.28-.21.43a3.2,3.2,0,0,1-6.1.07c-1.3-2.92-2.67-5.81-4-8.71q-3.81-8.28-7.6-16.56a9.85,9.85,0,0,1-.81-2.24,3,3,0,0,1,1.94-3.44,3.16,3.16,0,0,1,3.76,1.33,15.09,15.09,0,0,1,.83,1.73q3.8,8.28,7.6,16.56C1160.5,556.71,1160.91,557.46,1161.53,558.69Z" transform="translate(-122.29 -209.4)"/><path d="M1118.37,536.15c1.39,0,2.49-.05,3.58,0,2.07.12,3.2,1.26,3.18,3.12s-1.17,3-3.22,3.14c-1.09.07-2.2,0-3.41,0-.05,1-.13,1.67-.13,2.37q0,5.87,0,11.75a12.75,12.75,0,0,0,.19,2.38,4.76,4.76,0,0,0,4.51,4.22c.55.07,1.13,0,1.67.13a3.11,3.11,0,0,1,2.64,3.44,2.93,2.93,0,0,1-3.06,2.74c-6.06.16-11.78-2.1-12.18-11-.2-4.39-.05-8.79-.06-13.18,0-.87,0-1.74,0-2.56-3.32-.65-4.35-1.47-4.39-3.38s1-2.84,4.39-3.46c0-1.5,0-3.07,0-4.64,0-1.84,0-3.68,0-5.51,0-2.54,1.19-3.89,3.24-3.86s3,1.31,3,3.77C1118.39,529,1118.37,532.33,1118.37,536.15Z" transform="translate(-122.29 -209.4)"/><path d="M1038.21,542.64c-3.27-.52-4.42-1.47-4.39-3.45s1.09-2.78,4.22-3.22c.05-.63.16-1.32.16-2,0-2.88,0-5.75,0-8.63,0-2.08,1.15-3.34,2.89-3.48a3,3,0,0,1,3.36,3.17c.09,2.71,0,5.43,0,8.15,0,.86,0,1.72,0,2.83,1.23,0,2.24.17,3.24.11a3.13,3.13,0,0,1,3.54,3.06c0,1.95-1.3,3.17-3.62,3.25-.95,0-1.9,0-3,0-.07.8-.17,1.42-.18,2q0,6.11,0,12.22a12.63,12.63,0,0,0,.22,2.38,4.66,4.66,0,0,0,4.37,4.07c.63.08,1.29,0,1.91.16a3.06,3.06,0,0,1,2.49,3.32,2.89,2.89,0,0,1-3,2.84,13.68,13.68,0,0,1-6.76-1.23,9.18,9.18,0,0,1-5.16-7.07,28.59,28.59,0,0,1-.41-4.76C1038.18,551.86,1038.21,547.32,1038.21,542.64Z" transform="translate(-122.29 -209.4)"/><path d="M741.45,535.89c0-3,0-5.83,0-8.69a24.22,24.22,0,0,1,0-2.64,3,3,0,0,1,2.86-2.71,3,3,0,0,1,3.22,2.3,10.85,10.85,0,0,1,.15,2.38c0,3.1,0,6.19,0,9.61,1.34,0,2.44-.05,3.53,0,2.05.11,3.22,1.28,3.21,3.11a3.11,3.11,0,0,1-3.24,3.14c-1,.07-2.07,0-3.29,0-.08.72-.2,1.32-.2,1.92q0,6.35,0,12.71c0,4.18,1.45,5.71,5.64,6.15a5.49,5.49,0,0,1,1.17.2,3.17,3.17,0,0,1,2.18,3.34,3.08,3.08,0,0,1-2.89,2.72c-7,.75-12.08-3.53-12.33-10.57-.16-4.55,0-9.11-.06-13.67,0-.86,0-1.73,0-2.55-3.33-.59-4.41-1.44-4.46-3.35S738.06,536.46,741.45,535.89Z" transform="translate(-122.29 -209.4)"/><path d="M308.93,542.67c-3.3-.55-4.5-1.49-4.53-3.39s1.14-2.83,4.34-3.38c.06-.56.17-1.17.18-1.77,0-3,0-5.92,0-8.87,0-2.12,1.09-3.31,2.9-3.41a3.07,3.07,0,0,1,3.33,3.27c.1,2.71,0,5.43,0,8.15,0,.86,0,1.71,0,2.87,1.36,0,2.46-.05,3.55,0a3,3,0,0,1,3.18,2.91,3.13,3.13,0,0,1-3,3.33c-1.1.1-2.22,0-3.49,0-.07.76-.18,1.37-.18,2,0,4.32,0,8.63,0,12.95,0,3.87,1.57,5.49,5.42,5.86a5.9,5.9,0,0,1,1.63.32,3.1,3.1,0,0,1-.79,5.93c-6.7,1-12.14-3.36-12.45-10.15-.21-4.63-.07-9.27-.09-13.91C308.93,544.53,308.93,543.66,308.93,542.67Z" transform="translate(-122.29 -209.4)"/><path d="M221.58,542.43c0,5.56-.1,10.75,0,15.93.08,2.91,1.81,4.48,4.69,4.8a12.87,12.87,0,0,1,1.9.19,3,3,0,0,1,2.25,3.26,2.86,2.86,0,0,1-2.74,2.81c-5.52.31-11.92-1.65-12.36-10.21-.24-4.62-.07-9.27-.09-13.9,0-.87,0-1.74,0-2.56-3.44-.76-4.58-1.68-4.55-3.55s1.12-2.69,4.41-3.37c0-.64.13-1.33.14-2,0-2.8,0-5.6,0-8.39,0-2.32,1.07-3.52,3-3.57s3.2,1.26,3.24,3.61c.05,2.64,0,5.28,0,7.91,0,.79,0,1.58,0,2.7,1.26,0,2.34,0,3.42.08,2.06.11,3.29,1.23,3.35,3s-1.27,3.15-3.38,3.27C223.88,542.48,222.85,542.43,221.58,542.43Z" transform="translate(-122.29 -209.4)"/><path d="M486.83,539.52a16.73,16.73,0,0,1,12.88-3.19,13,13,0,0,1,4.07,1.27,3,3,0,0,1,1.37,4.09,3.17,3.17,0,0,1-3.84,1.59,21.49,21.49,0,0,0-4.44-.79,10.11,10.11,0,0,0-10.28,9.87c-.14,4.23,0,8.47-.06,12.7a9.41,9.41,0,0,1-.14,2.14,3,3,0,0,1-3.23,2.27,2.89,2.89,0,0,1-2.83-2.71,14.91,14.91,0,0,1,0-1.68q0-12.23,0-24.45c0-.48,0-1,0-1.44a3,3,0,0,1,2.32-2.95A3,3,0,0,1,486.2,538C486.43,538.37,486.56,538.83,486.83,539.52Z" transform="translate(-122.29 -209.4)"/><path d="M629.25,563a19.18,19.18,0,0,1,2.42.46,3.06,3.06,0,0,1,2.09,3.37,2.91,2.91,0,0,1-2.7,2.61,45.28,45.28,0,0,1-5.27,0,2.87,2.87,0,0,1-2.73-2.57,10.89,10.89,0,0,1-.08-1.91q0-19.3,0-38.6a8.63,8.63,0,0,1,.23-2.37,3,3,0,0,1,3.34-2.11,2.9,2.9,0,0,1,2.64,2.66,17.26,17.26,0,0,1,.06,2.15q0,16.78,0,33.57Z" transform="translate(-122.29 -209.4)"/><path d="M876.13,552.84c0,3.92,0,7.83,0,11.75A12.76,12.76,0,0,1,876,567a2.92,2.92,0,0,1-3,2.5,3,3,0,0,1-3-2.53,9.89,9.89,0,0,1-.1-1.91q0-12.23,0-24.46a9.57,9.57,0,0,1,.11-1.91,3,3,0,0,1,3.06-2.5,2.93,2.93,0,0,1,3,2.53,13.29,13.29,0,0,1,.15,2.39C876.14,545,876.13,548.92,876.13,552.84Z" transform="translate(-122.29 -209.4)"/><path d="M994,552.84c0,4.4,0,8.79,0,13.19,0,2.12-1.09,3.33-2.88,3.43a3,3,0,0,1-3.28-2.52,11,11,0,0,1-.07-1.91q0-12.23,0-24.46c0-.48,0-1,0-1.44a3,3,0,0,1,3.13-3,2.93,2.93,0,0,1,3.06,3c.09,3,0,5.91,0,8.87Q994,550.44,994,552.84Z" transform="translate(-122.29 -209.4)"/><path d="M1095.21,552.6c0-4.32,0-8.63,0-12.95,0-2.06.93-3.21,2.59-3.45a3.08,3.08,0,0,1,3.59,2.7,11.67,11.67,0,0,1,0,1.68q0,12.23,0,24.46a12.2,12.2,0,0,1,0,1.68,3.06,3.06,0,0,1-3.33,2.75,2.86,2.86,0,0,1-2.84-3c-.08-2.88,0-5.75,0-8.63Q1095.21,555.23,1095.21,552.6Z" transform="translate(-122.29 -209.4)"/><path d="M130.93,552.54q0-6,0-12a10.17,10.17,0,0,1,.09-1.91,3,3,0,0,1,3.09-2.47,3,3,0,0,1,3,2.55,9.56,9.56,0,0,1,.07,1.67q0,12.47,0,24.95a9.64,9.64,0,0,1-.05,1.44,3.11,3.11,0,0,1-6.18-.08,12.82,12.82,0,0,1,0-1.68Q130.93,558.78,130.93,552.54Z" transform="translate(-122.29 -209.4)"/><path d="M1139.55,552.81c0,4.4,0,8.79,0,13.19,0,2.06-1,3.22-2.62,3.45a3,3,0,0,1-3.55-2.47,10.45,10.45,0,0,1-.12-2.15q0-12,0-24a10.89,10.89,0,0,1,.11-2.15,3,3,0,0,1,3.28-2.53,3,3,0,0,1,2.84,2.73,14.37,14.37,0,0,1,.07,1.91q0,6,0,12Z" transform="translate(-122.29 -209.4)"/><path d="M959.92,561a4.2,4.2,0,0,1,4.28,4.2,4.15,4.15,0,0,1-4.22,4.23,4.22,4.22,0,1,1-.05-8.43Z" transform="translate(-122.29 -209.4)"/><path d="M1222,569.47a4.22,4.22,0,1,1,0-8.43,4.22,4.22,0,1,1,0,8.43Z" transform="translate(-122.29 -209.4)"/><path d="M331.91,569.47a4.22,4.22,0,1,1,.22-8.43,4.22,4.22,0,1,1-.22,8.43Z" transform="translate(-122.29 -209.4)"/><path d="M679.33,569.47a4.05,4.05,0,0,1-4.15-4.25,4.12,4.12,0,0,1,4.24-4.19,4.2,4.2,0,0,1,4.19,4.28A4.14,4.14,0,0,1,679.33,569.47Z" transform="translate(-122.29 -209.4)"/><path d="M876.63,530.24a3.62,3.62,0,0,1-3.65,3.63,3.65,3.65,0,1,1,0-7.3A3.6,3.6,0,0,1,876.63,530.24Z" transform="translate(-122.29 -209.4)"/><path d="M137.72,530.32a3.65,3.65,0,1,1-3.48-3.75A3.57,3.57,0,0,1,137.72,530.32Z" transform="translate(-122.29 -209.4)"/><path d="M1136.32,533.87a3.65,3.65,0,1,1,.33-7.3,3.56,3.56,0,0,1,3.44,3.8A3.61,3.61,0,0,1,1136.32,533.87Z" transform="translate(-122.29 -209.4)"/><path d="M994.52,530.12a3.54,3.54,0,0,1-3.47,3.75,3.65,3.65,0,1,1-.19-7.3A3.52,3.52,0,0,1,994.52,530.12Z" transform="translate(-122.29 -209.4)"/><path d="M1102,530.29a3.65,3.65,0,1,1-7.29-.27,3.53,3.53,0,0,1,3.78-3.45A3.57,3.57,0,0,1,1102,530.29Z" transform="translate(-122.29 -209.4)"/></svg>