<svg id="Layer_1" data-name="Layer 1" xmlns="http://www.w3.org/2000/svg" viewBox="0 0 511.95 512"><defs><style>.cls-1{fill:#95caef;}.cls-2{fill:#fff;}.cls-3{fill:#197ad7;}</style></defs><path class="cls-1" d="M466.1,248.5l25.6-25.6a25.6,25.6,0,0,0-36.2-36.2l-25.6,25.6Z"/><path class="cls-2" d="M64,499.2A51.17,51.17,0,0,1,12.8,448V64A51.17,51.17,0,0,1,64,12.8H250.8l146,146.1V448a51.17,51.17,0,0,1-51.2,51.2Z"/><path class="cls-1" d="M307.2,153.6A51.17,51.17,0,0,1,256,102.4V18.1L391.1,153.6Z"/><path class="cls-1" d="M422.1,220.5,274.5,368.1a25.6,25.6,0,0,0,36.2,36.2h0L458.3,256.7Z"/><rect class="cls-1" x="25.6" y="25.6" width="51.52" height="466.78"/><path class="cls-3" d="M482.6,250.4l18.1-18.1A38.4,38.4,0,0,0,446.4,178l-36.9,36.9V153.6L256.1,0H64A64.06,64.06,0,0,0,0,64V448a64.06,64.06,0,0,0,64,64H345.6a64.06,64.06,0,0,0,64-64V323.5l55-55,9,9-18.1,18.1A12.8,12.8,0,0,0,473.3,314l.3-.3,27.2-27.2a12.8,12.8,0,0,0,0-18.1ZM268.8,49.1l91.5,91.7H307.2a38.41,38.41,0,0,1-38.4-38.4ZM384,448a38.41,38.41,0,0,1-38.4,38.4H64A38.41,38.41,0,0,1,25.6,448V64A38.41,38.41,0,0,1,64,25.6H243.2v76.8a64.06,64.06,0,0,0,64,64H384v74.1L265.4,359a38.11,38.11,0,0,0-7.4,43.6l-1.1,1.1c-13.8-14.8-27.3-21.3-40.9-19.6-13,1.6-20.8,10-27.1,16.8-4.7,5.1-7.8,8.3-11.3,8.8-1.5-.1-5.5-4.6-7.9-7.4-5.9-7-14-16.5-27.5-18.2-16.7-2-33,8-50.1,30.6a12.82,12.82,0,1,0,20.2,15.8l.3-.3c10.5-13.9,20.2-21.5,26.7-20.6,3.2.4,6.5,3.9,11,9.3,6,7,14,16.5,27,16.5,1.1,0,2.3-.1,3.4-.2,13-1.6,20.8-10,27.1-16.8,4.8-5.2,7.8-8.3,11.3-8.8,6.4-.9,16.1,6.8,26.7,20.6a12.79,12.79,0,0,0,10.1,5h1.2a12.51,12.51,0,0,0,8.4-3.7l10.7-10.7a37.76,37.76,0,0,0,43.6-7.4l64.4-64.3V448Zm-82.4-52.8a12.8,12.8,0,0,1-18.1,0h0a12.8,12.8,0,0,1,0-18.1L428.3,232.3l18.1,18.1ZM464.5,232.3l-3.3-3.3-14.8-14.8,18.1-18.1a15,15,0,0,1,3.3-2.3,11.18,11.18,0,0,1,3.5-1.2,16.35,16.35,0,0,1,2.2-.2,9.08,9.08,0,0,1,2.3.3,15,15,0,0,1,4.2,1.5,12.74,12.74,0,0,1,4.4,17.6,15,15,0,0,1-1.9,2.5ZM89.6,192a12.76,12.76,0,0,1,12.8-12.8h77.2a12.8,12.8,0,1,1,0,25.6H102.4A12.76,12.76,0,0,1,89.6,192Zm0,51.2a12.76,12.76,0,0,1,12.8-12.8h154a12.8,12.8,0,1,1,0,25.6h-154A12.76,12.76,0,0,1,89.6,243.2Z"/></svg>