<svg id="Layer_1" data-name="Layer 1" xmlns="http://www.w3.org/2000/svg" viewBox="0 0 58.67 48.95"><defs><style>.cls-1{fill:#197ad7;}.cls-2{fill:#95caef;}</style></defs><g id="Layer_82" data-name="Layer 82"><path class="cls-1" d="M7.29,27.67a1.88,1.88,0,0,0,2.39,1l11.8-4.52a1.86,1.86,0,0,0-1.33-3.48l-8,3.05C20.89,5.37,48.07,7.68,53.43,27.5a1.87,1.87,0,0,0,3.61-1h0C50.82,3.61,19.47.68,9,21.79L6.23,14.54a1.86,1.86,0,0,0-3.48,1.29S7.24,27.63,7.29,27.67Z" transform="translate(-2.69 -7.52)"/><path class="cls-1" d="M61.24,47.47,57,36.35a2.08,2.08,0,0,0-.56-.75,1.9,1.9,0,0,0-1.86-.32L43.45,39.54A1.86,1.86,0,0,0,44.78,43l7.29-2.78C43.36,58.63,16.18,56.32,10.81,36.5a1.87,1.87,0,0,0-2.28-1.32A1.9,1.9,0,0,0,7.2,37.47c6.22,22.92,37.58,25.85,48,4.73l2.49,6.58a1.88,1.88,0,1,0,3.52-1.31Z" transform="translate(-2.69 -7.52)"/></g><circle class="cls-2" cx="29.31" cy="24.25" r="6.77"/><path class="cls-1" d="M25,32a7,7,0,0,0,7,7c9.27-.38,9.27-13.6,0-14a7,7,0,0,0-7,7ZM37.4,32a5.39,5.39,0,1,1-1.58-3.8A5.35,5.35,0,0,1,37.4,32Z" transform="translate(-2.69 -7.52)"/></svg>