<svg id="Icons" xmlns="http://www.w3.org/2000/svg" viewBox="0 0 25.99 28"><defs><style>.cls-1{fill:#95caef;}.cls-2{fill:none;stroke:#197ad7;stroke-linecap:round;stroke-linejoin:round;stroke-width:2px;}</style></defs><path class="cls-1" d="M16,3.28a7,7,0,0,1,7,7l2.17,9h-18l1.86-9A7,7,0,0,1,16,3.28Z" transform="translate(-3 -2)"/><path class="cls-2" d="M27.8,23.2l-1.1-1.7A16.88,16.88,0,0,1,23.8,12a7.86,7.86,0,0,0-5.6-7.5,2.36,2.36,0,0,0-4.4,0A7.86,7.86,0,0,0,8.2,12a16.88,16.88,0,0,1-2.9,9.5L4.2,23.2a1.15,1.15,0,0,0,1,1.8H26.8A1.15,1.15,0,0,0,27.8,23.2Z" transform="translate(-3 -2)"/><path class="cls-2" d="M20,25a4,4,0,0,1-8,0" transform="translate(-3 -2)"/><path class="cls-1" d="M34.42,25.94" transform="translate(-3 -2)"/></svg>