<svg id="Layer_1" data-name="Layer 1" xmlns="http://www.w3.org/2000/svg" viewBox="0 0 57.96 55.67"><defs><style>.cls-1{fill:#95caef;}.cls-2{fill:#197ad7;}</style></defs><g id="Layer_13" data-name="Layer 13"><polygon class="cls-1" points="23.26 13.95 40.8 31.61 51.23 21.64 49.9 18.5 47.43 18.34 43.29 22.14 40.54 21.18 40.58 18.77 46.54 11.96 45.23 9.46 41.93 9.85 39.02 12.68 36.57 12.18 36.4 8.66 41.26 4.18 40.8 1.56 37.25 1.15 24.99 13.7 23.26 13.95"/><path class="cls-2" d="M49.14,22.36,46.54,25a1.39,1.39,0,0,1-2,0l0,0a1.45,1.45,0,0,1-.41-1,1.41,1.41,0,0,1,.41-1l4.78-4.77a3.37,3.37,0,0,0,0-4.79,3.49,3.49,0,0,0-4.79,0l-2,2.05a1.39,1.39,0,0,1-2,0l0,0a1.4,1.4,0,0,1,0-2l0,0L44.14,10a3.38,3.38,0,0,0-4.56-5l-.22.22L27,17.53a4.2,4.2,0,0,0-5,.69L19.28,21a4.21,4.21,0,0,0,0,5.93L35.92,43.52a4.21,4.21,0,0,0,5.93,0l1-1.05,1.66,1.66L39,49.71,22.06,40.35a1,1,0,0,0-1.19.17l-5,5-.32-.33a2.31,2.31,0,0,0-3.19,0l-8.7,8.69a2.28,2.28,0,0,0,0,3.19l2.07,2.06a2.22,2.22,0,0,0,1.59.67,2.24,2.24,0,0,0,1.6-.67l8.69-8.69a2.26,2.26,0,0,0,0-3.19l-.33-.32,4.48-4.47,16.91,9.35a.91.91,0,0,0,.48.13,1,1,0,0,0,.71-.3l6.82-6.82a1,1,0,0,0,.29-.7,1,1,0,0,0-.29-.71l-2.36-2.36.28-.28a4.21,4.21,0,0,0,.68-5l8.65-8.64a3.38,3.38,0,1,0-4.76-4.8l0,0ZM16.18,49,7.49,57.73a.22.22,0,0,1-.31.05.12.12,0,0,1,0-.05L5.07,55.67a.25.25,0,0,1,0-.35h0l8.69-8.69a.24.24,0,0,1,.34,0l0,0,2.06,2.06A.24.24,0,0,1,16.18,49Zm24.25-6.9a2.18,2.18,0,0,1-3.07,0l0,0L20.7,25.46a2.18,2.18,0,0,1,0-3.07l0,0,2.74-2.74a2.18,2.18,0,0,1,3.08,0h0L43.17,36.27a2.19,2.19,0,0,1,0,3.09l-1,1h0ZM52.5,25.72,44,34.25,28.55,18.82,40.78,6.6a1.39,1.39,0,1,1,1.94,2l-3.56,3.57A3.38,3.38,0,1,0,43.92,17l0,0L46,15a1.38,1.38,0,0,1,1.95,0,1.34,1.34,0,0,1,.41,1,1.39,1.39,0,0,1-.41,1l-4.77,4.78h0a3.37,3.37,0,0,0-1,2.4,3.43,3.43,0,0,0,1,2.38,3.38,3.38,0,0,0,4.78,0l2.6-2.6a1.4,1.4,0,0,1,2,1.95Z" transform="translate(-3.01 -4.13)"/><path class="cls-2" d="M60,16.26A3.38,3.38,0,1,0,60,21l0,0A3.39,3.39,0,0,0,60,16.26Zm-1.4,3.37a1.41,1.41,0,0,1-2-2,1.39,1.39,0,0,1,2,0l0,0a1.39,1.39,0,0,1,0,2Z" transform="translate(-3.01 -4.13)"/></g></svg>