<svg id="Layer_1" data-name="Layer 1" xmlns="http://www.w3.org/2000/svg" viewBox="0 0 480.54 512"><defs><style>.cls-1,.cls-2{fill:#95caef;}.cls-1,.cls-5{fill-rule:evenodd;}.cls-3,.cls-5{fill:#197ad7;}.cls-4{fill:none;stroke:#197ad7;stroke-linecap:round;stroke-miterlimit:10;stroke-width:17.07px;}</style></defs><path class="cls-1" d="M133,359.12,85.39,348.6a23.93,23.93,0,0,1-23.94-23.93V170.3a23.93,23.93,0,0,1,23.94-23.93H209.75a23.93,23.93,0,0,1,23.94,23.93V324.67c0,6.37-17.8-1.67-31.69,6.33-9.24,5.32-41.52,55-60,56.41C130.7,388.26,135.6,359.12,133,359.12Z" transform="translate(-15.73)"/><path class="cls-2" d="M417.58,11h17a31.75,31.75,0,0,1,31.75,31.75V238.26A31.75,31.75,0,0,1,434.58,270h-17a0,0,0,0,1,0,0V11A0,0,0,0,1,417.58,11Z"/><polygon class="cls-2" points="224.27 379 224.27 436 274.27 407.5 224.27 379"/><path class="cls-3" d="M440,0H418c-9.67,0-9.67,15,0,15h22a41.21,41.21,0,0,1,41.23,41.08v173.6A41.21,41.21,0,0,1,440,270.76h-25a7.51,7.51,0,0,0-4.56,1.54L364.7,307.35V278.26a7.5,7.5,0,0,0-7.5-7.5H265.91a41,41,0,0,1-21-5.72V180.83a45.78,45.78,0,0,0-20.23-38V56.08A41.2,41.2,0,0,1,265.91,15H371c9.67,0,9.67-15,0-15H265.91a56.23,56.23,0,0,0-56.24,56.08v80.21A45.94,45.94,0,0,0,199,135H61.66a45.93,45.93,0,0,0-45.93,45.81V197c0,9.67,15,9.67,15,0v-16.2A30.9,30.9,0,0,1,61.66,150H199a30.91,30.91,0,0,1,30.93,30.81V268a7.37,7.37,0,0,0,0,2v47.72c0,.94-.06,1.88-.15,2.81H214.29A34.81,34.81,0,0,0,180.09,349a7.3,7.3,0,0,0-1.94,1.08L144.6,376V356a7.5,7.5,0,0,0-7.5-7.5H61.66a30.9,30.9,0,0,1-30.92-30.81V242c0-9.68-15-9.68-15,0v75.69a45.93,45.93,0,0,0,45.93,45.81H129.6v27.73a7.61,7.61,0,0,0,12.08,5.94L179.52,368v84.39a34.77,34.77,0,0,0,34.78,34.69h46v17.5a7.61,7.61,0,0,0,12.08,5.94l30.36-23.44h9a34.77,34.77,0,0,0,34.77-34.69V439.06c0-9.67-15-9.67-15,0v13.32a19.75,19.75,0,0,1-19.77,19.69H300.21a7.5,7.5,0,0,0-4.58,1.56l-20.3,15.67v-9.73a7.5,7.5,0,0,0-7.5-7.5H214.29a19.74,19.74,0,0,1-19.76-19.69V355.23a19.74,19.74,0,0,1,19.76-19.68h97.45a19.75,19.75,0,0,1,19.77,19.68v36.83c0,9.67,15,9.67,15,0V355.23a34.77,34.77,0,0,0-34.77-34.68H244.82c.06-.94.09-38.83.09-38.83a56.1,56.1,0,0,0,21,4H349.7v36.77a7.62,7.62,0,0,0,12.06,6l55.85-42.73H440a56.22,56.22,0,0,0,56.23-56.08V56.08A56.22,56.22,0,0,0,440,0Z" transform="translate(-15.73)"/><path class="cls-3" d="M296.26,400.72,246.78,372.2a8.54,8.54,0,0,0-8.73,0,8.74,8.74,0,0,0-4.36,7.28v57a8.74,8.74,0,0,0,4.36,7.28,8.54,8.54,0,0,0,8.73,0l49.48-28.52a8.74,8.74,0,0,0,0-15.14Zm-49.48,28.52V387.41l36.38,20.88Z" transform="translate(-15.73)"/><line class="cls-4" x1="259.91" y1="63" x2="433.27" y2="63"/><line class="cls-4" x1="259.43" y1="130" x2="402.27" y2="130"/><line class="cls-4" x1="259.43" y1="197" x2="336.59" y2="197"/><polygon class="cls-5" points="104.53 276.61 145.4 224 198.01 294 34.53 294 75.4 241.54 104.53 276.61"/><circle class="cls-3" cx="102.27" cy="222" r="15"/></svg>