<svg id="Layer_1" data-name="Layer 1" xmlns="http://www.w3.org/2000/svg" viewBox="0 0 409.6 510.6"><defs><style>.cls-1{fill:#197ad7;}.cls-2{fill:#95caef;stroke-width:17px;}.cls-2,.cls-3{stroke:#197ad7;stroke-miterlimit:10;}.cls-3{fill:none;stroke-linecap:round;stroke-width:21px;}</style></defs><path class="cls-1" d="M173.1,1.4H115.3a64.19,64.19,0,0,0-64,64V448a64.19,64.19,0,0,0,64,64H396.9a64.19,64.19,0,0,0,64-64V65.4a64.34,64.34,0,0,0-64.1-64H173.1ZM345.6,27h51.2a38.41,38.41,0,0,1,38.4,38.4V448h0a38.41,38.41,0,0,1-38.4,38.4H115.2A38.41,38.41,0,0,1,76.8,448V65.4A38.41,38.41,0,0,1,115.2,27H345.6Z" transform="translate(-51.3 -1.4)"/><rect class="cls-2" x="57.43" y="65.33" width="124.32" height="107.31" rx="18.97"/><rect class="cls-2" x="225.82" y="65.33" width="124.32" height="107.31" rx="18.97"/><rect class="cls-2" x="57.43" y="224.7" width="292.71" height="98.26" rx="13.72"/><line class="cls-3" x1="57.43" y1="376.68" x2="350.14" y2="376.68"/><line class="cls-3" x1="57.43" y1="425.65" x2="241.9" y2="425.65"/></svg>