<svg id="Layer_1" data-name="Layer 1" xmlns="http://www.w3.org/2000/svg" viewBox="0 0 24 24"><defs><style>.cls-1{fill:#95caef;}.cls-2{fill:none;stroke:#0071dc;stroke-linecap:round;stroke-linejoin:round;}</style></defs><g id="Duotone"><rect class="cls-1" x="9.5" y="0.5" width="2" height="6"/><polygon class="cls-1" points="9.5 7.5 4.5 7.5 3.5 10.5 8.5 10.5 9.5 7.5"/><polygon class="cls-1" points="9.5 12.5 4.5 12.5 3.5 15.5 8.5 15.5 9.5 12.5"/><polygon class="cls-1" points="9.5 17.5 4.5 17.5 3.5 20.5 8.5 20.5 9.5 17.5"/><polygon class="cls-1" points="22.4 14.6 23.5 15.6 16.2 22.9 13.5 23.5 22.4 14.6"/><path class="cls-2" d="M10.5,23.5H1.25a.76.76,0,0,1-.75-.75V1.25A.76.76,0,0,1,1.25.5h9.94a.75.75,0,0,1,.53.22l5.56,5.56a.75.75,0,0,1,.22.53V13.5"/><polyline class="cls-2" points="11.5 0.5 11.5 6.5 17.5 6.5"/><polyline class="cls-2" points="9.2 8.5 12.5 8.5 12.5 18.5 9.2 18.5"/><line class="cls-2" x1="9.2" y1="13.5" x2="15.5" y2="13.5"/><polygon class="cls-2" points="14.1 20.8 21.4 13.5 23.5 15.6 16.2 22.9 13.5 23.5 14.1 20.8"/><polygon class="cls-2" points="9.5 7.5 4.5 7.5 3.5 10.5 8.5 10.5 9.5 7.5"/><polygon class="cls-2" points="9.5 12.5 4.5 12.5 3.5 15.5 8.5 15.5 9.5 12.5"/><polygon class="cls-2" points="9.5 17.5 4.5 17.5 3.5 20.5 8.5 20.5 9.5 17.5"/></g></svg>