<svg xmlns="http://www.w3.org/2000/svg" viewBox="0 0 62.93 99.71"><defs><style>.cls-1{fill:#95caef;}.cls-2,.cls-3,.cls-4{fill:none;stroke-linejoin:round;}.cls-2,.cls-3{stroke:#197ad7;stroke-width:3px;}.cls-3,.cls-4{stroke-linecap:round;}.cls-4{stroke:#0071dc;stroke-width:3px;}</style></defs><g id="Layer_2" data-name="Layer 2"><path class="cls-1" d="M35,60.13s-7.45,6.5-9.08,12-1.63,21.09,0,23,2.55-2.45,2.55-2.45a26.51,26.51,0,0,1,7.48-9.33C41.24,79.08,42.5,79,42.5,79Z" transform="translate(-23.17 -1.54)"/><path class="cls-1" d="M74.21,58.69s7.46,6.5,9.09,12,1.63,21.09,0,22.95-2.56-2.44-2.56-2.44a26.36,26.36,0,0,0-7.48-9.33c-5.32-4.23-6.57-4.26-6.57-4.26Z" transform="translate(-23.17 -1.54)"/></g><g id="Layer_1" data-name="Layer 1"><g id="layer1"><g id="g3505"><g id="g3441"><circle class="cls-1" cx="31.86" cy="35.41" r="10.37"/><path id="path11187" class="cls-2" d="M74.32,60.27A32.11,32.11,0,0,1,84.59,84a32.69,32.69,0,0,1-2.26,12C77.73,84.13,66.79,76.4,54.63,76.4S31.54,84.11,26.92,95.91A32.74,32.74,0,0,1,24.66,84a32.09,32.09,0,0,1,10-23.48" transform="translate(-23.17 -1.54)"/><path id="path8252-2" class="cls-3" d="M38.93,72.24a39.21,39.21,0,0,1,5.48-1.93m3.83-.88c.65-.12-.65.08,0,0m4.4-.42a39,39,0,0,1,17.57,3.23" transform="translate(-23.17 -1.54)"/><path id="path11157" class="cls-3" d="M33.65,48.2A59.82,59.82,0,0,0,42.5,79,32.32,32.32,0,0,1,54.63,76.4a32.35,32.35,0,0,1,12.26,2.41A58.83,58.83,0,0,0,75.6,48.2c0-17.08-6.52-33.4-19.91-45.16C45.41,12.1,37.91,23.84,35,36.55m-1,5c-.1.5-.19,1-.27,1.51" transform="translate(-23.17 -1.54)"/><path id="path11233" class="cls-3" d="M49.14,89.43l0,5V77.19a14.53,14.53,0,0,1,9.46,0V99.74l0-10.64" transform="translate(-23.17 -1.54)"/><path id="path11270" class="cls-4" d="M65.91,37a10.89,10.89,0,1,1-21.77,0h0a10.9,10.9,0,0,1,19.51-6.68" transform="translate(-23.17 -1.54)"/></g></g></g></g></svg>